# xmcd
#
# Track frame offsets:
#	150
#	10413
#	21975
#	34035
#	46050
#	57970
#	71683
#	84783
#	97535
#	106415
#	120238
#	131960
#	143890
#	159228
#
# Disc length: 2314 seconds
# Revision: 0
# Processed by: cddbd v1.5.2PL0 Copyright (c) Steve Scherf et al.
# Submitted via: dBpowerAMP V12.0
#
DISCID=a809080e
DTITLE=Eddie Adcock, Kenny Baker, Josh Graves and Jess McReynolds - The Masters
DYEAR=1995
DGENRE=Country
TTITLE0=Josh-Away
TTITLE1=Rambling Gambling Rag
TTITLE2=Night Runner
TTITLE3=Crying Heart Waltz
TTITLE4=Tyler's Tuition
TTITLE5=Thomas Jefferson Breakdown
TTITLE6=My Louisiana
TTITLE7=Waggin' the Dog
TTITLE8=Ball River
TTITLE9=Deep Sea Cruise
TTITLE10=Rocky Ford
TTITLE11=Kelly Lynn Waltz
TTITLE12=Whisky Chitto
TTITLE13=Roadside Breakdown
EXTD=
EXTT0=
EXTT1=
EXTT2=
EXTT3=
EXTT4=
EXTT5=
EXTT6=
EXTT7=
EXTT8=
EXTT9=
EXTT10=
EXTT11=
EXTT12=
EXTT13=
PLAYORDER=
